; NON-PLATED HOLES START AT T1
; THROUGH (PLATED) HOLES START AT T100
M48
INCH
T100C0.015748
T101C0.038000
T102C0.125984
T103C0.131984
%
T100
X011045Y018542
X013045Y016542
X029045Y017542
X034045Y018542
X032045Y019542
X029045Y019542
X029045Y020542
X034045Y021542
X008045Y016542
X013045Y018542
X034045Y016542
X034045Y019542
X029045Y018542
T101
X016045Y009542
X035045Y020542
X008045Y018542
X006045Y018542
X016045Y006542
X016045Y016542
X013045Y001542
X005045Y018542
X005045Y008542
X026045Y005542
X028045Y005542
X026045Y015542
X035045Y017542
X016045Y013542
X034045Y003542
X011045Y009542
X013045Y018542
X008045Y011542
X028045Y020542
X028045Y007542
X026045Y012542
X026045Y014542
X026045Y007542
X028045Y004542
X026045Y017542
X026045Y004542
X011045Y013542
X034045Y006542
X034045Y009542
X003045Y013542
X035045Y019542
X012045Y010542
X034045Y005542
X013045Y000542
X013045Y010542
X016045Y012542
X030045Y018542
X016045Y007542
X016045Y014542
X016045Y004542
X016045Y017542
X034045Y004542
X028045Y006542
X026045Y009542
X026045Y006542
X028045Y019542
X026045Y016542
X034045Y012541
X026045Y013542
X034045Y007541
X007045Y002542
X016045Y005542
X011045Y014542
X011045Y007542
X011045Y012542
X016045Y015542
X013045Y009542
X011045Y018542
X003045Y008542
X013045Y016542
X012045Y013542
X007045Y018542
X016045Y011542
X012045Y009542
X013045Y013542
X034045Y008542
X013045Y003542
X008045Y016542
X016045Y008542
X030045Y017542
X034045Y011541
X016045Y018542
X005045Y013542
X030045Y020542
X026045Y010542
X032045Y021542
X012045Y014542
X012045Y007542
X009045Y002542
X012045Y012542
X026045Y008542
X026045Y018542
X016045Y010542
X013045Y012542
X032045Y019542
X013045Y014542
X013045Y007542
X013045Y002542
X035045Y018542
X026045Y011542
X034045Y010542
X011045Y010542
X006045Y002542
X030045Y019542
X008045Y002542
T102
X001045Y001542
X033595Y014772
X034045Y001542
T103
X001045Y021542
T00
M30
