{
  "accessors": [
    {
      "bufferView": 2,
      "componentType": 5126,
      "count": 5061,
      "max": [
        40.268398284912109,
        55.792598724365234,
        14.63539981842041
      ],
      "min": [
        -39.891700744628906,
        -55.792598724365234,
        -21.707099914550781
      ],
      "type": "VEC3"
    },
    {
      "bufferView": 2,
      "byteOffset": 60732,
      "componentType": 5126,
      "count": 5061,
      "max": [
        0.99997293949127197,
        1,
        0.99999892711639404
      ],
      "min": [
        -0.99999558925628662,
        -1,
        -0.99998140335083008
      ],
      "type": "VEC3"
    },
    {
      "bufferView": 1,
      "componentType": 5126,
      "count": 5061,
      "max": [
        0.99809998273849487,
        0.99779999256134033
      ],
      "min": [
        0.0043000001460313797,
        0.0073000001721084118
      ],
      "type": "VEC2"
    },
    {
      "bufferView": 0,
      "componentType": 5125,
      "count": 15429,
      "max": [
        5060
      ],
      "min": [
        0
      ],
      "type": "SCALAR"
    },
    {
      "bufferView": 2,
      "byteOffset": 121464,
      "componentType": 5126,
      "count": 22,
      "max": [
        -26.523399353027344,
        2.9389998912811279,
        -0.42179998755455017
      ],
      "min": [
        -32.489101409912109,
        -2.9389998912811279,
        -5.0029997825622559
      ],
      "type": "VEC3"
    },
    {
      "bufferView": 2,
      "byteOffset": 121728,
      "componentType": 5126,
      "count": 22,
      "max": [
        0.024398595094680786,
        0.99948662519454956,
        0.99908798933029175
      ],
      "min": [
        -0.045797739177942276,
        -0.99948662519454956,
        0.026299647986888885
      ],
      "type": "VEC3"
    },
    {
      "bufferView": 1,
      "byteOffset": 40488,
      "componentType": 5126,
      "count": 22,
      "max": [
        0.13709999620914459,
        0.26800000667572021
      ],
      "min": [
        0.075000002980232239,
        0.13699999451637268
      ],
      "type": "VEC2"
    },
    {
      "bufferView": 0,
      "byteOffset": 61716,
      "componentType": 5125,
      "count": 60,
      "max": [
        21
      ],
      "min": [
        0
      ],
      "type": "SCALAR"
    }
  ],
  "asset": {
    "extras": {
      "author": "techno-science3d (https://sketchfab.com/technoscience3d)",
      "license": "CC0-1.0 (http://creativecommons.org/publicdomain/zero/1.0/)",
      "source": "https://sketchfab.com/3d-models/royal-factory-be-2c-first-world-war-airplane-97bdead18da14e6d87d6725910b92562",
      "title": "Royal Factory B.E. 2c - First World War Airplane"
    },
    "generator": "Sketchfab-7.80.0",
    "version": "2.0"
  },
  "bufferViews": [
    {
      "buffer": 0,
      "byteLength": 61956,
      "byteOffset": 0,
      "name": "floatBufferViews",
      "target": 34963
    },
    {
      "buffer": 0,
      "byteLength": 40664,
      "byteOffset": 61956,
      "byteStride": 8,
      "name": "floatBufferViews",
      "target": 34962
    },
    {
      "buffer": 0,
      "byteLength": 121992,
      "byteOffset": 102620,
      "byteStride": 12,
      "name": "floatBufferViews",
      "target": 34962
    }
  ],
  "buffers": [
    {
      "byteLength": 224612,
      "uri": "scene.bin"
    }
  ],
  "materials": [
    {
      "doubleSided": true,
      "emissiveFactor": [
        0,
        0,
        0
      ],
      "name": "Scene_-_Root",
      "pbrMetallicRoughness": {
        "baseColorFactor": [
          1,
          1,
          1,
          1
        ],
        "metallicFactor": 0,
        "roughnessFactor": 0.20000000000000001
      }
    }
  ],
  "meshes": [
    {
      "primitives": [
        {
          "attributes": {
            "NORMAL": 1,
            "POSITION": 0,
            "TEXCOORD_0": 2
          },
          "indices": 3,
          "material": 0,
          "mode": 4
        }
      ]
    },
    {
      "primitives": [
        {
          "attributes": {
            "NORMAL": 5,
            "POSITION": 4,
            "TEXCOORD_0": 6
          },
          "indices": 7,
          "material": 0,
          "mode": 4
        }
      ]
    }
  ],
  "nodes": [
    {
      "children": [
        1
      ],
      "name": "RootNode (gltf orientation matrix)",
      "rotation": [
        -0.70710678118654746,
        -0,
        -0,
        0.70710678118654757
      ]
    },
    {
      "children": [
        2
      ],
      "name": "RootNode (model correction matrix)"
    },
    {
      "children": [
        3,
        4
      ],
      "name": "5fd310c5c8cc465f8c73166ba4073be0.obj.cleaner.materialmerger.gles"
    },
    {
      "mesh": 0,
      "name": ""
    },
    {
      "mesh": 1,
      "name": ""
    }
  ],
  "scene": 0,
  "scenes": [
    {
      "name": "OSG_Scene",
      "nodes": [
        0
      ]
    }
  ]
}

